{
    "accessors": {
        "accessor_16": {
            "bufferView": "bufferView_42",
            "byteOffset": 372,
            "byteStride": 0,
            "componentType": 5123,
            "count": 36,
            "type": "SCALAR"
        },
        "accessor_18": {
            "bufferView": "bufferView_43",
            "byteOffset": 4464,
            "byteStride": 12,
            "componentType": 5126,
            "count": 36,
            "max": [
                1,
                1,
                1
            ],
            "min": [
                -1,
                -1,
                -1
            ],
            "type": "VEC3"
        },
        "accessor_20": {
            "bufferView": "bufferView_43",
            "byteOffset": 4896,
            "byteStride": 12,
            "componentType": 5126,
            "count": 36,
            "max": [
                1,
                1,
                1
            ],
            "min": [
                -1,
                -1,
                -1
            ],
            "type": "VEC3"
        },
        "accessor_36": {
            "bufferView": "bufferView_42",
            "byteOffset": 0,
            "byteStride": 0,
            "componentType": 5123,
            "count": 186,
            "type": "SCALAR"
        },
        "accessor_38": {
            "bufferView": "bufferView_43",
            "byteOffset": 0,
            "byteStride": 12,
            "componentType": 5126,
            "count": 186,
            "max": [
                1,
                1,
                1
            ],
            "min": [
                -1,
                -1,
                -1
            ],
            "type": "VEC3"
        },
        "accessor_40": {
            "bufferView": "bufferView_43",
            "byteOffset": 2232,
            "byteStride": 12,
            "componentType": 5126,
            "count": 186,
            "max": [
                0.890977,
                0.890977,
                0.445488
            ],
            "min": [
                -0.890977,
                -0.890977,
                -1
            ],
            "type": "VEC3"
        }
    },
    "animations": {},
    "asset": {
        "generator": "collada2gltf@d0bbe4ce1ac0dea2efee7bb5a4d1b9e3345c3efe",
        "premultipliedAlpha": true,
        "profile": "WebGL 1.0.2",
        "version": 0.8
    },
    "bufferViews": {
        "bufferView_42": {
            "buffer": "camera",
            "byteLength": 444,
            "byteOffset": 0,
            "target": 34963
        },
        "bufferView_43": {
            "buffer": "camera",
            "byteLength": 5328,
            "byteOffset": 444,
            "target": 34962
        }
    },
    "buffers": {
        "camera": {
            "byteLength": 5772,
            "type": "arraybuffer",
            "uri": "data:application/octet-stream;base64,"
        }
    },
    "materials": {
        "Material_001-effect": {
            "instanceTechnique": {
                "technique": "technique0",
                "values": {
                    "ambient": [
                        0,
                        0,
                        0,
                        1
                    ],
                    "diffuse": [
                        0.000242821,
                        0.29699,
                        0.578444,
                        1
                    ],
                    "emission": [
                        0,
                        0,
                        0,
                        1
                    ],
                    "shininess": 50,
                    "specular": [
                        0.5,
                        0.5,
                        0.5,
                        1
                    ],
                    "transparency": 0.3
                }
            },
            "name": "Material_001"
        },
        "Material_002-effect": {
            "instanceTechnique": {
                "technique": "technique0",
                "values": {
                    "ambient": [
                        0,
                        0,
                        0,
                        1
                    ],
                    "diffuse": [
                        0.000242821,
                        0.29699,
                        0.578444,
                        1
                    ],
                    "emission": [
                        0,
                        0,
                        0,
                        1
                    ],
                    "shininess": 50,
                    "specular": [
                        0.5,
                        0.5,
                        0.5,
                        1
                    ],
                    "transparency": 0.3
                }
            },
            "name": "Material_002"
        }
    },
    "meshes": {
        "Cone-mesh": {
            "name": "Cone",
            "primitives": [
                {
                    "attributes": {
                        "NORMAL": "accessor_40",
                        "POSITION": "accessor_38"
                    },
                    "indices": "accessor_36",
                    "material": "Material_001-effect",
                    "primitive": 4
                }
            ]
        },
        "Cube_001-mesh": {
            "name": "Cube.001",
            "primitives": [
                {
                    "attributes": {
                        "NORMAL": "accessor_20",
                        "POSITION": "accessor_18"
                    },
                    "indices": "accessor_16",
                    "material": "Material_002-effect",
                    "primitive": 4
                }
            ]
        }
    },
    "nodes": {
        "Cone": {
            "children": [],
            "matrix": [
                -0.3,
                2.59152e-009,
                2.62268e-008,
                0,
                -1.72769e-009,
                -0.2,
                -3.01992e-008,
                0,
                1.74846e-008,
                -3.01992e-008,
                0.2,
                0,
                0,
                0,
                -0.662953,
                1
            ],
            "meshes": [
                "Cone-mesh"
            ],
            "name": "Cone"
        },
        "Cube": {
            "children": [],
            "matrix": [
                0.2,
                0,
                0,
                0,
                0,
                -2.18557e-008,
                0.5,
                0,
                0,
                -0.2,
                -8.74228e-009,
                0,
                0,
                0,
                0,
                1
            ],
            "meshes": [
                "Cube_001-mesh"
            ],
            "name": "Cube"
        },
        "node_2": {
            "children": [
                "Cube",
                "Cone"
            ],
            "matrix": [
                1,
                0,
                0,
                0,
                0,
                0,
                -1,
                0,
                0,
                1,
                0,
                0,
                0,
                0,
                0,
                1
            ],
            "name": "Y_UP_Transform"
        }
    },
    "programs": {
        "program_0": {
            "attributes": [
                "a_normal",
                "a_position"
            ],
            "fragmentShader": "camera0FS",
            "vertexShader": "camera0VS"
        }
    },
    "scene": "defaultScene",
    "scenes": {
        "defaultScene": {
            "nodes": [
                "node_2"
            ]
        }
    },
    "shaders": {
        "camera0FS": {
            "type": 35632,
            "uri": "data:text/plain;base64,"
        },
        "camera0VS": {
            "type": 35633,
            "uri": "data:text/plain;base64,"
        }
    },
    "skins": {},
    "techniques": {
        "technique0": {
            "parameters": {
                "ambient": {
                    "type": 35666
                },
                "diffuse": {
                    "type": 35666
                },
                "emission": {
                    "type": 35666
                },
                "modelViewMatrix": {
                    "semantic": "MODELVIEW",
                    "type": 35676
                },
                "normal": {
                    "semantic": "NORMAL",
                    "type": 35665
                },
                "normalMatrix": {
                    "semantic": "MODELVIEWINVERSETRANSPOSE",
                    "type": 35675
                },
                "position": {
                    "semantic": "POSITION",
                    "type": 35665
                },
                "projectionMatrix": {
                    "semantic": "PROJECTION",
                    "type": 35676
                },
                "shininess": {
                    "type": 5126
                },
                "specular": {
                    "type": 35666
                },
                "transparency": {
                    "type": 5126
                }
            },
            "pass": "defaultPass",
            "passes": {
                "defaultPass": {
                    "details": {
                        "commonProfile": {
                            "extras": {
                                "doubleSided": false
                            },
                            "lightingModel": "Phong",
                            "parameters": [
                                "ambient",
                                "diffuse",
                                "emission",
                                "modelViewMatrix",
                                "normalMatrix",
                                "projectionMatrix",
                                "shininess",
                                "specular",
                                "transparency"
                            ]
                        },
                        "type": "COLLADA-1.4.1/commonProfile"
                    },
                    "instanceProgram": {
                        "attributes": {
                            "a_normal": "normal",
                            "a_position": "position"
                        },
                        "program": "program_0",
                        "uniforms": {
                            "u_ambient": "ambient",
                            "u_diffuse": "diffuse",
                            "u_emission": "emission",
                            "u_modelViewMatrix": "modelViewMatrix",
                            "u_normalMatrix": "normalMatrix",
                            "u_projectionMatrix": "projectionMatrix",
                            "u_shininess": "shininess",
                            "u_specular": "specular",
                            "u_transparency": "transparency"
                        }
                    },
                    "states": {
                        "enable": [
                            2884,
                            2929,
                            3042
                        ],
                        "functions": {
                            "blendEquationSeparate": [
                                32774,
                                32774
                            ],
                            "blendFuncSeparate": [
                                1,
                                771,
                                1,
                                771
                            ]
                        }
                    }
                }
            }
        }
    }
}