{
    "accessors": {
        "accessor_16": {
            "bufferView": "bufferView_62",
            "byteOffset": 0,
            "byteStride": 0,
            "componentType": 5123,
            "count": 36,
            "type": "SCALAR"
        },
        "accessor_18": {
            "bufferView": "bufferView_63",
            "byteOffset": 0,
            "byteStride": 12,
            "componentType": 5126,
            "count": 24,
            "max": [
                1,
                1,
                1
            ],
            "min": [
                -1,
                -1,
                -1
            ],
            "type": "VEC3"
        },
        "accessor_20": {
            "bufferView": "bufferView_63",
            "byteOffset": 288,
            "byteStride": 12,
            "componentType": 5126,
            "count": 24,
            "max": [
                1,
                1,
                1
            ],
            "min": [
                -1,
                -1,
                -1
            ],
            "type": "VEC3"
        },
        "accessor_36": {
            "bufferView": "bufferView_62",
            "byteOffset": 72,
            "byteStride": 0,
            "componentType": 5123,
            "count": 36,
            "type": "SCALAR"
        },
        "accessor_38": {
            "bufferView": "bufferView_63",
            "byteOffset": 576,
            "byteStride": 12,
            "componentType": 5126,
            "count": 24,
            "max": [
                1,
                1,
                1
            ],
            "min": [
                -1,
                -1,
                -1
            ],
            "type": "VEC3"
        },
        "accessor_40": {
            "bufferView": "bufferView_63",
            "byteOffset": 864,
            "byteStride": 12,
            "componentType": 5126,
            "count": 24,
            "max": [
                1,
                1,
                1
            ],
            "min": [
                -1,
                -1,
                -1
            ],
            "type": "VEC3"
        },
        "accessor_56": {
            "bufferView": "bufferView_62",
            "byteOffset": 144,
            "byteStride": 0,
            "componentType": 5123,
            "count": 36,
            "type": "SCALAR"
        },
        "accessor_58": {
            "bufferView": "bufferView_63",
            "byteOffset": 1152,
            "byteStride": 12,
            "componentType": 5126,
            "count": 24,
            "max": [
                1,
                1,
                1
            ],
            "min": [
                -1,
                -1,
                -1
            ],
            "type": "VEC3"
        },
        "accessor_60": {
            "bufferView": "bufferView_63",
            "byteOffset": 1440,
            "byteStride": 12,
            "componentType": 5126,
            "count": 24,
            "max": [
                1,
                1,
                1
            ],
            "min": [
                -1,
                -1,
                -1
            ],
            "type": "VEC3"
        }
    },
    "animations": {},
    "asset": {
        "generator": "collada2gltf@d0bbe4ce1ac0dea2efee7bb5a4d1b9e3345c3efe",
        "premultipliedAlpha": true,
        "profile": "WebGL 1.0.2",
        "version": 0.8
    },
    "bufferViews": {
        "bufferView_62": {
            "buffer": "marker",
            "byteLength": 216,
            "byteOffset": 0,
            "target": 34963
        },
        "bufferView_63": {
            "buffer": "marker",
            "byteLength": 1728,
            "byteOffset": 216,
            "target": 34962
        }
    },
    "buffers": {
        "marker": {
            "byteLength": 1944,
            "type": "arraybuffer",
            "uri": "data:application/octet-stream;base64,"
        }
    },
    "materials": {
        "Material-effect": {
            "instanceTechnique": {
                "technique": "technique0",
                "values": {
                    "ambient": [
                        0,
                        0,
                        0,
                        1
                    ],
                    "diffuse": [
                        0.64,
                        0.000743204,
                        0.00145779,
                        1
                    ],
                    "emission": [
                        0,
                        0,
                        0,
                        1
                    ],
                    "shininess": 50,
                    "specular": [
                        0.5,
                        0.5,
                        0.5,
                        1
                    ]
                }
            },
            "name": "Material"
        },
        "Material_001-effect": {
            "instanceTechnique": {
                "technique": "technique0",
                "values": {
                    "ambient": [
                        0,
                        0,
                        0,
                        1
                    ],
                    "diffuse": [
                        0.0023436,
                        0.00439518,
                        0.64,
                        1
                    ],
                    "emission": [
                        0,
                        0,
                        0,
                        1
                    ],
                    "shininess": 50,
                    "specular": [
                        0.5,
                        0.5,
                        0.5,
                        1
                    ]
                }
            },
            "name": "Material_001"
        },
        "Material_002-effect": {
            "instanceTechnique": {
                "technique": "technique0",
                "values": {
                    "ambient": [
                        0,
                        0,
                        0,
                        1
                    ],
                    "diffuse": [
                        0.00140707,
                        0.64,
                        0,
                        1
                    ],
                    "emission": [
                        0,
                        0,
                        0,
                        1
                    ],
                    "shininess": 50,
                    "specular": [
                        0.5,
                        0.5,
                        0.5,
                        1
                    ]
                }
            },
            "name": "Material_002"
        }
    },
    "meshes": {
        "Cube_001-mesh": {
            "name": "Cube.001",
            "primitives": [
                {
                    "attributes": {
                        "NORMAL": "accessor_20",
                        "POSITION": "accessor_18"
                    },
                    "indices": "accessor_16",
                    "material": "Material_002-effect",
                    "primitive": 4
                }
            ]
        },
        "Cube_002-mesh": {
            "name": "Cube.002",
            "primitives": [
                {
                    "attributes": {
                        "NORMAL": "accessor_40",
                        "POSITION": "accessor_38"
                    },
                    "indices": "accessor_36",
                    "material": "Material_001-effect",
                    "primitive": 4
                }
            ]
        },
        "Cube_003-mesh": {
            "name": "Cube.003",
            "primitives": [
                {
                    "attributes": {
                        "NORMAL": "accessor_60",
                        "POSITION": "accessor_58"
                    },
                    "indices": "accessor_56",
                    "material": "Material-effect",
                    "primitive": 4
                }
            ]
        }
    },
    "nodes": {
        "blue": {
            "children": [],
            "matrix": [
                1,
                0,
                0,
                0,
                0,
                0.01,
                0,
                0,
                0,
                0,
                0.01,
                0,
                -1,
                0,
                0,
                1
            ],
            "meshes": [
                "Cube_002-mesh"
            ],
            "name": "blue"
        },
        "green": {
            "children": [],
            "matrix": [
                0.01,
                0,
                0,
                0,
                0,
                0.01,
                0,
                0,
                0,
                0,
                1,
                0,
                0,
                0,
                -1,
                1
            ],
            "meshes": [
                "Cube_001-mesh"
            ],
            "name": "green"
        },
        "node_3": {
            "children": [
                "green",
                "blue",
                "red"
            ],
            "matrix": [
                1,
                0,
                0,
                0,
                0,
                0,
                -1,
                0,
                0,
                1,
                0,
                0,
                0,
                0,
                0,
                1
            ],
            "name": "Y_UP_Transform"
        },
        "red": {
            "children": [],
            "matrix": [
                0.01,
                0,
                0,
                0,
                0,
                1,
                0,
                0,
                0,
                0,
                0.01,
                0,
                0,
                1,
                0,
                1
            ],
            "meshes": [
                "Cube_003-mesh"
            ],
            "name": "red"
        }
    },
    "programs": {
        "program_0": {
            "attributes": [
                "a_normal",
                "a_position"
            ],
            "fragmentShader": "marker0FS",
            "vertexShader": "marker0VS"
        }
    },
    "scene": "defaultScene",
    "scenes": {
        "defaultScene": {
            "nodes": [
                "node_3"
            ]
        }
    },
    "shaders": {
        "marker0FS": {
            "type": 35632,
            "uri": "data:text/plain;base64,"
        },
        "marker0VS": {
            "type": 35633,
            "uri": "data:text/plain;base64,"
        }
    },
    "skins": {},
    "techniques": {
        "technique0": {
            "parameters": {
                "ambient": {
                    "type": 35666
                },
                "diffuse": {
                    "type": 35666
                },
                "emission": {
                    "type": 35666
                },
                "modelViewMatrix": {
                    "semantic": "MODELVIEW",
                    "type": 35676
                },
                "normal": {
                    "semantic": "NORMAL",
                    "type": 35665
                },
                "normalMatrix": {
                    "semantic": "MODELVIEWINVERSETRANSPOSE",
                    "type": 35675
                },
                "position": {
                    "semantic": "POSITION",
                    "type": 35665
                },
                "projectionMatrix": {
                    "semantic": "PROJECTION",
                    "type": 35676
                },
                "shininess": {
                    "type": 5126
                },
                "specular": {
                    "type": 35666
                }
            },
            "pass": "defaultPass",
            "passes": {
                "defaultPass": {
                    "details": {
                        "commonProfile": {
                            "extras": {
                                "doubleSided": false
                            },
                            "lightingModel": "Phong",
                            "parameters": [
                                "ambient",
                                "diffuse",
                                "emission",
                                "modelViewMatrix",
                                "normalMatrix",
                                "projectionMatrix",
                                "shininess",
                                "specular"
                            ]
                        },
                        "type": "COLLADA-1.4.1/commonProfile"
                    },
                    "instanceProgram": {
                        "attributes": {
                            "a_normal": "normal",
                            "a_position": "position"
                        },
                        "program": "program_0",
                        "uniforms": {
                            "u_ambient": "ambient",
                            "u_diffuse": "diffuse",
                            "u_emission": "emission",
                            "u_modelViewMatrix": "modelViewMatrix",
                            "u_normalMatrix": "normalMatrix",
                            "u_projectionMatrix": "projectionMatrix",
                            "u_shininess": "shininess",
                            "u_specular": "specular"
                        }
                    },
                    "states": {
                        "enable": [
                            2884,
                            2929
                        ]
                    }
                }
            }
        }
    }
}